<svg height="1024" viewBox="0 0 1440 1024" width="1440" xmlns="http://www.w3.org/2000/svg" xmlns:xlink="http://www.w3.org/1999/xlink"><defs><radialGradient id="a" cx="50%" cy="0%" gradientTransform="matrix(0 1 -2.69066625 0 .5 -.5)" r="100%"><stop offset="0" stop-color="#002c46"/><stop offset="1" stop-color="#00052a"/></radialGradient><path id="b" d="m0 0h1440v1024h-1440z"/><mask id="c" fill="#fff"><use fill="#fff" fill-rule="evenodd" xlink:href="#b"/></mask></defs><g fill="none" fill-rule="evenodd"><path d="m0 0h1440v1024h-1440z" fill="#04022b"/><use fill="url(#a)" opacity=".7" xlink:href="#b"/><g stroke="#fff" stroke-opacity=".3"><g mask="url(#c)" opacity=".1"><g transform="matrix(1 0 0 -1 .095713 795.447606)"><path d="m.5.5h71.611989v71.97439h-71.611989z"/><path d="m143.997858.5v71.9743904h-71.611989v-71.9743904z"/><path d="m72.1119888 72.7446465v71.9743905h-71.6119888v-71.9743905z"/><path d="m143.997858 72.7446465v71.9743905h-71.611989v-71.9743905z"/><path d="m287.769596.5v71.9743904h-71.611989v-71.9743904z"/><path d="m215.883727.5v71.9743904h-71.611989v-71.9743904z"/><path d="m215.883727 72.7446465v71.9743905h-71.611989v-71.9743905z"/><path d="m287.769596 72.7446465v71.9743905h-71.611989v-71.9743905z"/><path d="m359.655465.5v71.9743904h-71.611989v-71.9743904z"/><path d="m431.541334.5v71.9743904h-71.611989v-71.9743904z"/><path d="m359.655465 72.7446465v71.9743905h-71.611989v-71.9743905z"/><path d="m431.541334 72.7446465v71.9743905h-71.611989v-71.9743905z"/><path d="m575.313072.5v71.9743904h-71.611989v-71.9743904z"/><path d="m503.427203.5v71.9743904h-71.611989v-71.9743904z"/><path d="m503.427203 72.7446465v71.9743905h-71.611989v-71.9743905z"/><path d="m575.313072 72.7446465v71.9743905h-71.611989v-71.9743905z"/><path d="m647.19894.5v71.9743904h-71.611988v-71.9743904z"/><path d="m719.084809.5v71.9743904h-71.611988v-71.9743904z"/><path d="m647.19894 72.7446465v71.9743905h-71.611988v-71.9743905z"/><path d="m719.084809 72.7446465v71.9743905h-71.611988v-71.9743905z"/><path d="m72.1119888 144.989293v71.97439h-71.6119888v-71.97439z"/><path d="m143.997858 144.989293v71.97439h-71.611989v-71.97439z"/><path d="m72.1119888 217.233939v71.974391h-71.6119888v-71.974391z"/><path d="m143.997858 217.233939v71.974391h-71.611989v-71.974391z"/><path d="m287.769596 144.989293v71.97439h-71.611989v-71.97439z"/><path d="m215.883727 144.989293v71.97439h-71.611989v-71.97439z"/><path d="m215.883727 217.233939v71.974391h-71.611989v-71.974391z"/><path d="m287.769596 217.233939v71.974391h-71.611989v-71.974391z"/><path d="m359.655465 144.989293v71.97439h-71.611989v-71.97439z"/><path d="m431.541334 144.989293v71.97439h-71.611989v-71.97439z"/><path d="m359.655465 217.233939v71.974391h-71.611989v-71.974391z"/><path d="m431.541334 217.233939v71.974391h-71.611989v-71.974391z"/><path d="m575.313072 144.989293v71.97439h-71.611989v-71.97439z"/><path d="m503.427203 144.989293v71.97439h-71.611989v-71.97439z"/><path d="m503.427203 217.233939v71.974391h-71.611989v-71.974391z"/><path d="m575.313072 217.233939v71.974391h-71.611989v-71.974391z"/><path d="m647.19894 144.989293v71.97439h-71.611988v-71.97439z"/><path d="m719.084809 144.989293v71.97439h-71.611988v-71.97439z"/><path d="m647.19894 217.233939v71.974391h-71.611988v-71.974391z"/><path d="m719.084809 217.233939v71.974391h-71.611988v-71.974391z"/><path d="m72.1119888 289.478586v71.97439h-71.6119888v-71.97439z"/><path d="m143.997858 289.478586v71.97439h-71.611989v-71.97439z"/><path d="m72.1119888 361.723232v71.974391h-71.6119888v-71.974391z"/><path d="m143.997858 361.723232v71.974391h-71.611989v-71.974391z"/><path d="m287.769596 289.478586v71.97439h-71.611989v-71.97439z"/><path d="m215.883727 289.478586v71.97439h-71.611989v-71.97439z"/><path d="m215.883727 361.723232v71.974391h-71.611989v-71.974391z"/><path d="m287.769596 361.723232v71.974391h-71.611989v-71.974391z"/><path d="m359.655465 289.478586v71.97439h-71.611989v-71.97439z"/><path d="m431.541334 289.478586v71.97439h-71.611989v-71.97439z"/><path d="m359.655465 361.723232v71.974391h-71.611989v-71.974391z"/><path d="m431.541334 361.723232v71.974391h-71.611989v-71.974391z"/><path d="m575.313072 289.478586v71.97439h-71.611989v-71.97439z"/><path d="m503.427203 289.478586v71.97439h-71.611989v-71.97439z"/><path d="m503.427203 361.723232v71.974391h-71.611989v-71.974391z"/><path d="m575.313072 361.723232v71.974391h-71.611989v-71.974391z"/><path d="m647.19894 289.478586v71.97439h-71.611988v-71.97439z"/><path d="m719.084809 289.478586v71.97439h-71.611988v-71.97439z"/><path d="m647.19894 361.723232v71.974391h-71.611988v-71.974391z"/><path d="m719.084809 361.723232v71.974391h-71.611988v-71.974391z"/><path d="m72.1119888 433.967879v71.97439h-71.6119888v-71.97439z"/><path d="m143.997858 433.967879v71.97439h-71.611989v-71.97439z"/><path d="m72.1119888 506.212525v71.974391h-71.6119888v-71.974391z"/><path d="m143.997858 506.212525v71.974391h-71.611989v-71.974391z"/><path d="m287.769596 433.967879v71.97439h-71.611989v-71.97439z"/><path d="m215.883727 433.967879v71.97439h-71.611989v-71.97439z"/><path d="m215.883727 506.212525v71.974391h-71.611989v-71.974391z"/><path d="m287.769596 506.212525v71.974391h-71.611989v-71.974391z"/><path d="m359.655465 433.967879v71.97439h-71.611989v-71.97439z"/><path d="m431.541334 433.967879v71.97439h-71.611989v-71.97439z"/><path d="m359.655465 506.212525v71.974391h-71.611989v-71.974391z"/><path d="m431.541334 506.212525v71.974391h-71.611989v-71.974391z"/><path d="m575.313072 433.967879v71.97439h-71.611989v-71.97439z"/><path d="m503.427203 433.967879v71.97439h-71.611989v-71.97439z"/><path d="m503.427203 506.212525v71.974391h-71.611989v-71.974391z"/><path d="m575.313072 506.212525v71.974391h-71.611989v-71.974391z"/><path d="m647.19894 433.967879v71.97439h-71.611988v-71.97439z"/><path d="m719.084809 433.967879v71.97439h-71.611988v-71.97439z"/><path d="m647.19894 506.212525v71.974391h-71.611988v-71.974391z"/><path d="m719.084809 506.212525v71.974391h-71.611988v-71.974391z"/><path d="m72.1119888 578.457172v71.97439h-71.6119888v-71.97439z"/><path d="m143.997858 578.457172v71.97439h-71.611989v-71.97439z"/><path d="m215.883727 578.457172v71.97439h-71.611989v-71.97439z"/><path d="m287.769596 578.457172v71.97439h-71.611989v-71.97439z"/><path d="m359.655465 578.457172v71.97439h-71.611989v-71.97439z"/><path d="m431.541334 578.457172v71.97439h-71.611989v-71.97439z"/><path d="m503.427203 578.457172v71.97439h-71.611989v-71.97439z"/><path d="m575.313072 578.457172v71.97439h-71.611989v-71.97439z"/><path d="m647.19894 578.457172v71.97439h-71.611988v-71.97439z"/><path d="m719.084809 578.457172v71.97439h-71.611988v-71.97439z"/><path d="m72.1119888 650.701818v71.974391h-71.6119888v-71.974391z"/><path d="m143.997858 650.701818v71.974391h-71.611989v-71.974391z"/><path d="m215.883727 650.701818v71.974391h-71.611989v-71.974391z"/><path d="m287.769596 650.701818v71.974391h-71.611989v-71.974391z"/><path d="m359.655465 650.701818v71.974391h-71.611989v-71.974391z"/><path d="m431.541334 650.701818v71.974391h-71.611989v-71.974391z"/><path d="m503.427203 650.701818v71.974391h-71.611989v-71.974391z"/><path d="m575.313072 650.701818v71.974391h-71.611989v-71.974391z"/><path d="m647.19894 650.701818v71.974391h-71.611988v-71.974391z"/><path d="m719.084809 650.701818v71.974391h-71.611988v-71.974391z"/><path d="m72.1119888 722.946465v71.97439h-71.6119888v-71.97439z"/><path d="m143.997858 722.946465v71.97439h-71.611989v-71.97439z"/><path d="m215.883727 722.946465v71.97439h-71.611989v-71.97439z"/><path d="m287.769596 722.946465v71.97439h-71.611989v-71.97439z"/><path d="m359.655465 722.946465v71.97439h-71.611989v-71.97439z"/><path d="m431.541334 722.946465v71.97439h-71.611989v-71.97439z"/><path d="m503.427203 722.946465v71.97439h-71.611989v-71.97439z"/><path d="m575.313072 722.946465v71.97439h-71.611989v-71.97439z"/><path d="m647.19894 722.946465v71.97439h-71.611988v-71.97439z"/><path d="m719.084809 722.946465v71.97439h-71.611988v-71.97439z"/></g></g><g mask="url(#c)" opacity=".1"><g transform="matrix(1 0 0 -1 .554462 1590.895212)"><path d="m72.1119888 506.212525v71.974391h-71.6119888v-71.974391z"/><path d="m143.997858 506.212525v71.974391h-71.611989v-71.974391z"/><path d="m215.883727 506.212525v71.974391h-71.611989v-71.974391z"/><path d="m287.769596 506.212525v71.974391h-71.611989v-71.974391z"/><path d="m359.655465 506.212525v71.974391h-71.611989v-71.974391z"/><path d="m431.541334 506.212525v71.974391h-71.611989v-71.974391z"/><path d="m503.427203 506.212525v71.974391h-71.611989v-71.974391z"/><path d="m575.313072 506.212525v71.974391h-71.611989v-71.974391z"/><path d="m647.19894 506.212525v71.974391h-71.611988v-71.974391z"/><path d="m719.084809 506.212525v71.974391h-71.611988v-71.974391z"/><path d="m72.1119888 578.457172v71.97439h-71.6119888v-71.97439z"/><path d="m143.997858 578.457172v71.97439h-71.611989v-71.97439z"/><path d="m215.883727 578.457172v71.97439h-71.611989v-71.97439z"/><path d="m287.769596 578.457172v71.97439h-71.611989v-71.97439z"/><path d="m359.655465 578.457172v71.97439h-71.611989v-71.97439z"/><path d="m431.541334 578.457172v71.97439h-71.611989v-71.97439z"/><path d="m503.427203 578.457172v71.97439h-71.611989v-71.97439z"/><path d="m575.313072 578.457172v71.97439h-71.611989v-71.97439z"/><path d="m647.19894 578.457172v71.97439h-71.611988v-71.97439z"/><path d="m719.084809 578.457172v71.97439h-71.611988v-71.97439z"/><path d="m72.1119888 650.701818v71.974391h-71.6119888v-71.974391z"/><path d="m143.997858 650.701818v71.974391h-71.611989v-71.974391z"/><path d="m215.883727 650.701818v71.974391h-71.611989v-71.974391z"/><path d="m287.769596 650.701818v71.974391h-71.611989v-71.974391z"/><path d="m359.655465 650.701818v71.974391h-71.611989v-71.974391z"/><path d="m431.541334 650.701818v71.974391h-71.611989v-71.974391z"/><path d="m503.427203 650.701818v71.974391h-71.611989v-71.974391z"/><path d="m575.313072 650.701818v71.974391h-71.611989v-71.974391z"/><path d="m647.19894 650.701818v71.974391h-71.611988v-71.974391z"/><path d="m719.084809 650.701818v71.974391h-71.611988v-71.974391z"/><path d="m72.1119888 722.946465v71.97439h-71.6119888v-71.97439z"/><path d="m143.997858 722.946465v71.97439h-71.611989v-71.97439z"/><path d="m215.883727 722.946465v71.97439h-71.611989v-71.97439z"/><path d="m287.769596 722.946465v71.97439h-71.611989v-71.97439z"/><path d="m359.655465 722.946465v71.97439h-71.611989v-71.97439z"/><path d="m431.541334 722.946465v71.97439h-71.611989v-71.97439z"/><path d="m503.427203 722.946465v71.97439h-71.611989v-71.97439z"/><path d="m575.313072 722.946465v71.97439h-71.611989v-71.97439z"/><path d="m647.19894 722.946465v71.97439h-71.611988v-71.97439z"/><path d="m719.084809 722.946465v71.97439h-71.611988v-71.97439z"/></g></g><g mask="url(#c)" opacity=".1"><g transform="matrix(1 0 0 -1 719.636963 795.447606)"><path d="m.5.5h71.611989v71.97439h-71.611989z"/><path d="m143.997858.5v71.9743904h-71.611989v-71.9743904z"/><path d="m72.1119888 72.7446465v71.9743905h-71.6119888v-71.9743905z"/><path d="m143.997858 72.7446465v71.9743905h-71.611989v-71.9743905z"/><path d="m287.769596.5v71.9743904h-71.611989v-71.9743904z"/><path d="m215.883727.5v71.9743904h-71.611989v-71.9743904z"/><path d="m215.883727 72.7446465v71.9743905h-71.611989v-71.9743905z"/><path d="m287.769596 72.7446465v71.9743905h-71.611989v-71.9743905z"/><path d="m359.655465.5v71.9743904h-71.611989v-71.9743904z"/><path d="m431.541334.5v71.9743904h-71.611989v-71.9743904z"/><path d="m359.655465 72.7446465v71.9743905h-71.611989v-71.9743905z"/><path d="m431.541334 72.7446465v71.9743905h-71.611989v-71.9743905z"/><path d="m575.313072.5v71.9743904h-71.611989v-71.9743904z"/><path d="m503.427203.5v71.9743904h-71.611989v-71.9743904z"/><path d="m503.427203 72.7446465v71.9743905h-71.611989v-71.9743905z"/><path d="m575.313072 72.7446465v71.9743905h-71.611989v-71.9743905z"/><path d="m647.19894.5v71.9743904h-71.611988v-71.9743904z"/><path d="m719.084809.5v71.9743904h-71.611988v-71.9743904z"/><path d="m647.19894 72.7446465v71.9743905h-71.611988v-71.9743905z"/><path d="m719.084809 72.7446465v71.9743905h-71.611988v-71.9743905z"/><path d="m72.1119888 144.989293v71.97439h-71.6119888v-71.97439z"/><path d="m143.997858 144.989293v71.97439h-71.611989v-71.97439z"/><path d="m72.1119888 217.233939v71.974391h-71.6119888v-71.974391z"/><path d="m143.997858 217.233939v71.974391h-71.611989v-71.974391z"/><path d="m287.769596 144.989293v71.97439h-71.611989v-71.97439z"/><path d="m215.883727 144.989293v71.97439h-71.611989v-71.97439z"/><path d="m215.883727 217.233939v71.974391h-71.611989v-71.974391z"/><path d="m287.769596 217.233939v71.974391h-71.611989v-71.974391z"/><path d="m359.655465 144.989293v71.97439h-71.611989v-71.97439z"/><path d="m431.541334 144.989293v71.97439h-71.611989v-71.97439z"/><path d="m359.655465 217.233939v71.974391h-71.611989v-71.974391z"/><path d="m431.541334 217.233939v71.974391h-71.611989v-71.974391z"/><path d="m575.313072 144.989293v71.97439h-71.611989v-71.97439z"/><path d="m503.427203 144.989293v71.97439h-71.611989v-71.97439z"/><path d="m503.427203 217.233939v71.974391h-71.611989v-71.974391z"/><path d="m575.313072 217.233939v71.974391h-71.611989v-71.974391z"/><path d="m647.19894 144.989293v71.97439h-71.611988v-71.97439z"/><path d="m719.084809 144.989293v71.97439h-71.611988v-71.97439z"/><path d="m647.19894 217.233939v71.974391h-71.611988v-71.974391z"/><path d="m719.084809 217.233939v71.974391h-71.611988v-71.974391z"/><path d="m72.1119888 289.478586v71.97439h-71.6119888v-71.97439z"/><path d="m143.997858 289.478586v71.97439h-71.611989v-71.97439z"/><path d="m72.1119888 361.723232v71.974391h-71.6119888v-71.974391z"/><path d="m143.997858 361.723232v71.974391h-71.611989v-71.974391z"/><path d="m287.769596 289.478586v71.97439h-71.611989v-71.97439z"/><path d="m215.883727 289.478586v71.97439h-71.611989v-71.97439z"/><path d="m215.883727 361.723232v71.974391h-71.611989v-71.974391z"/><path d="m287.769596 361.723232v71.974391h-71.611989v-71.974391z"/><path d="m359.655465 289.478586v71.97439h-71.611989v-71.97439z"/><path d="m431.541334 289.478586v71.97439h-71.611989v-71.97439z"/><path d="m359.655465 361.723232v71.974391h-71.611989v-71.974391z"/><path d="m431.541334 361.723232v71.974391h-71.611989v-71.974391z"/><path d="m575.313072 289.478586v71.97439h-71.611989v-71.97439z"/><path d="m503.427203 289.478586v71.97439h-71.611989v-71.97439z"/><path d="m503.427203 361.723232v71.974391h-71.611989v-71.974391z"/><path d="m575.313072 361.723232v71.974391h-71.611989v-71.974391z"/><path d="m647.19894 289.478586v71.97439h-71.611988v-71.97439z"/><path d="m719.084809 289.478586v71.97439h-71.611988v-71.97439z"/><path d="m647.19894 361.723232v71.974391h-71.611988v-71.974391z"/><path d="m719.084809 361.723232v71.974391h-71.611988v-71.974391z"/><path d="m72.1119888 433.967879v71.97439h-71.6119888v-71.97439z"/><path d="m143.997858 433.967879v71.97439h-71.611989v-71.97439z"/><path d="m72.1119888 506.212525v71.974391h-71.6119888v-71.974391z"/><path d="m143.997858 506.212525v71.974391h-71.611989v-71.974391z"/><path d="m287.769596 433.967879v71.97439h-71.611989v-71.97439z"/><path d="m215.883727 433.967879v71.97439h-71.611989v-71.97439z"/><path d="m215.883727 506.212525v71.974391h-71.611989v-71.974391z"/><path d="m287.769596 506.212525v71.974391h-71.611989v-71.974391z"/><path d="m359.655465 433.967879v71.97439h-71.611989v-71.97439z"/><path d="m431.541334 433.967879v71.97439h-71.611989v-71.97439z"/><path d="m359.655465 506.212525v71.974391h-71.611989v-71.974391z"/><path d="m431.541334 506.212525v71.974391h-71.611989v-71.974391z"/><path d="m575.313072 433.967879v71.97439h-71.611989v-71.97439z"/><path d="m503.427203 433.967879v71.97439h-71.611989v-71.97439z"/><path d="m503.427203 506.212525v71.974391h-71.611989v-71.974391z"/><path d="m575.313072 506.212525v71.974391h-71.611989v-71.974391z"/><path d="m647.19894 433.967879v71.97439h-71.611988v-71.97439z"/><path d="m719.084809 433.967879v71.97439h-71.611988v-71.97439z"/><path d="m647.19894 506.212525v71.974391h-71.611988v-71.974391z"/><path d="m719.084809 506.212525v71.974391h-71.611988v-71.974391z"/><path d="m72.1119888 578.457172v71.97439h-71.6119888v-71.97439z"/><path d="m143.997858 578.457172v71.97439h-71.611989v-71.97439z"/><path d="m215.883727 578.457172v71.97439h-71.611989v-71.97439z"/><path d="m287.769596 578.457172v71.97439h-71.611989v-71.97439z"/><path d="m359.655465 578.457172v71.97439h-71.611989v-71.97439z"/><path d="m431.541334 578.457172v71.97439h-71.611989v-71.97439z"/><path d="m503.427203 578.457172v71.97439h-71.611989v-71.97439z"/><path d="m575.313072 578.457172v71.97439h-71.611989v-71.97439z"/><path d="m647.19894 578.457172v71.97439h-71.611988v-71.97439z"/><path d="m719.084809 578.457172v71.97439h-71.611988v-71.97439z"/><path d="m72.1119888 650.701818v71.974391h-71.6119888v-71.974391z"/><path d="m143.997858 650.701818v71.974391h-71.611989v-71.974391z"/><path d="m215.883727 650.701818v71.974391h-71.611989v-71.974391z"/><path d="m287.769596 650.701818v71.974391h-71.611989v-71.974391z"/><path d="m359.655465 650.701818v71.974391h-71.611989v-71.974391z"/><path d="m431.541334 650.701818v71.974391h-71.611989v-71.974391z"/><path d="m503.427203 650.701818v71.974391h-71.611989v-71.974391z"/><path d="m575.313072 650.701818v71.974391h-71.611989v-71.974391z"/><path d="m647.19894 650.701818v71.974391h-71.611988v-71.974391z"/><path d="m719.084809 650.701818v71.974391h-71.611988v-71.974391z"/><path d="m72.1119888 722.946465v71.97439h-71.6119888v-71.97439z"/><path d="m143.997858 722.946465v71.97439h-71.611989v-71.97439z"/><path d="m215.883727 722.946465v71.97439h-71.611989v-71.97439z"/><path d="m287.769596 722.946465v71.97439h-71.611989v-71.97439z"/><path d="m359.655465 722.946465v71.97439h-71.611989v-71.97439z"/><path d="m431.541334 722.946465v71.97439h-71.611989v-71.97439z"/><path d="m503.427203 722.946465v71.97439h-71.611989v-71.97439z"/><path d="m575.313072 722.946465v71.97439h-71.611989v-71.97439z"/><path d="m647.19894 722.946465v71.97439h-71.611988v-71.97439z"/><path d="m719.084809 722.946465v71.97439h-71.611988v-71.97439z"/></g></g><g mask="url(#c)" opacity=".1"><g transform="matrix(1 0 0 -1 720.095713 1590.895212)"><path d="m72.1119888 506.212525v71.974391h-71.6119888v-71.974391z"/><path d="m143.997858 506.212525v71.974391h-71.611989v-71.974391z"/><path d="m215.883727 506.212525v71.974391h-71.611989v-71.974391z"/><path d="m287.769596 506.212525v71.974391h-71.611989v-71.974391z"/><path d="m359.655465 506.212525v71.974391h-71.611989v-71.974391z"/><path d="m431.541334 506.212525v71.974391h-71.611989v-71.974391z"/><path d="m503.427203 506.212525v71.974391h-71.611989v-71.974391z"/><path d="m575.313072 506.212525v71.974391h-71.611989v-71.974391z"/><path d="m647.19894 506.212525v71.974391h-71.611988v-71.974391z"/><path d="m719.084809 506.212525v71.974391h-71.611988v-71.974391z"/><path d="m72.1119888 578.457172v71.97439h-71.6119888v-71.97439z"/><path d="m143.997858 578.457172v71.97439h-71.611989v-71.97439z"/><path d="m215.883727 578.457172v71.97439h-71.611989v-71.97439z"/><path d="m287.769596 578.457172v71.97439h-71.611989v-71.97439z"/><path d="m359.655465 578.457172v71.97439h-71.611989v-71.97439z"/><path d="m431.541334 578.457172v71.97439h-71.611989v-71.97439z"/><path d="m503.427203 578.457172v71.97439h-71.611989v-71.97439z"/><path d="m575.313072 578.457172v71.97439h-71.611989v-71.97439z"/><path d="m647.19894 578.457172v71.97439h-71.611988v-71.97439z"/><path d="m719.084809 578.457172v71.97439h-71.611988v-71.97439z"/><path d="m72.1119888 650.701818v71.974391h-71.6119888v-71.974391z"/><path d="m143.997858 650.701818v71.974391h-71.611989v-71.974391z"/><path d="m215.883727 650.701818v71.974391h-71.611989v-71.974391z"/><path d="m287.769596 650.701818v71.974391h-71.611989v-71.974391z"/><path d="m359.655465 650.701818v71.974391h-71.611989v-71.974391z"/><path d="m431.541334 650.701818v71.974391h-71.611989v-71.974391z"/><path d="m503.427203 650.701818v71.974391h-71.611989v-71.974391z"/><path d="m575.313072 650.701818v71.974391h-71.611989v-71.974391z"/><path d="m647.19894 650.701818v71.974391h-71.611988v-71.974391z"/><path d="m719.084809 650.701818v71.974391h-71.611988v-71.974391z"/><path d="m72.1119888 722.946465v71.97439h-71.6119888v-71.97439z"/><path d="m143.997858 722.946465v71.97439h-71.611989v-71.97439z"/><path d="m215.883727 722.946465v71.97439h-71.611989v-71.97439z"/><path d="m287.769596 722.946465v71.97439h-71.611989v-71.97439z"/><path d="m359.655465 722.946465v71.97439h-71.611989v-71.97439z"/><path d="m431.541334 722.946465v71.97439h-71.611989v-71.97439z"/><path d="m503.427203 722.946465v71.97439h-71.611989v-71.97439z"/><path d="m575.313072 722.946465v71.97439h-71.611989v-71.97439z"/><path d="m647.19894 722.946465v71.97439h-71.611988v-71.97439z"/><path d="m719.084809 722.946465v71.97439h-71.611988v-71.97439z"/></g></g></g></g></svg>