<svg xmlns="http://www.w3.org/2000/svg" width="35" height="29" viewBox="0 0 35 29">
    <g fill="none" fill-rule="evenodd">
        <g>
            <g>
                <g>
                    <g>
                        <g>
                            <g>
                                <path fill="#E86E1E" d="M10.72 10.5c.12 0 .218.099.218.22v1.006c1.278.381 1.274.38 2.463 1.018l.71-.71c.086-.084.224-.086.31 0l1.547 1.546c.035.035.064.105.064.155s-.03.12-.064.155l-.711.71c.651 1.215.627 1.165 1.018 2.463h1.007c.121 0 .219.098.219.219v2.187c0 .12-.098.22-.22.22h-1.006c-.389 1.291-.367 1.249-1.018 2.459l.709.713.002.31-1.547 1.546c-.085.088-.224.085-.31 0l-.71-.71c-1.19.638-1.185.637-2.463 1.017v1.008c0 .12-.098.219-.219.219H8.532c-.122 0-.22-.099-.22-.219v-1.007c-1.277-.381-1.273-.38-2.462-1.018l-.71.71c-.036.037-.105.066-.156.066-.05 0-.12-.03-.154-.065L3.283 23.17l.002-.31.709-.712c-.652-1.212-.63-1.17-1.018-2.46H1.969c-.122 0-.219-.1-.219-.22v-2.187c0-.12.097-.219.219-.219h1.007c.39-1.3.367-1.249 1.018-2.462l-.711-.711c-.035-.036-.064-.105-.064-.155s.029-.12.064-.155l1.547-1.547c.087-.085.225-.083.31 0l.71.711c1.189-.639 1.185-.637 2.463-1.018V10.72c0-.12.097-.219.219-.219h2.187zM28 19.25c1.93 0 3.501 1.57 3.501 3.5s-1.57 3.5-3.5 3.5-3.5-1.57-3.5-3.5 1.57-3.5 3.5-3.5zm5.251-7v2.775l-3 3c-.684-.326-1.441-.525-2.25-.525-1.549 0-2.927.683-3.888 1.75h-4.862v-1.969c0-.992-.737-1.814-1.693-1.949-.053-.14-.11-.278-.172-.414.58-.771.52-1.875-.181-2.576l-.093-.092h16.139zM13.995 1.75l4.219 8.75h-2.986c-.599-.34-1.317-.337-1.918 0h-.501l-.14-.058c-.135-.954-.959-1.692-1.95-1.692H8.532c-.631 0-1.17.318-1.532.78V1.75h6.995z" transform="translate(-370 -1190) translate(330 230) translate(0 44) translate(40 40) translate(0 876.125) translate(0 .028)"/>
                                <path fill="#FFF" fill-rule="nonzero" d="M10.72 28c.99 0 1.814-.736 1.95-1.691.138-.054.276-.111.413-.172.772.58 1.874.52 2.575-.182l1.547-1.547c.372-.372.577-.867.576-1.393 0-.433-.139-.845-.395-1.182.06-.137.12-.275.172-.415.348-.049.647-.212.912-.417h4.602c-.196.55-.322 1.133-.322 1.75 0 2.9 2.35 5.25 5.25 5.25s5.25-2.35 5.25-5.25c0-1.45-.587-2.763-1.537-3.713l2.775-2.775c.328-.328.512-.773.512-1.237V12.25c.001-.966-.783-1.75-1.749-1.75h-3.5v-.599c0-1.222.426-2.379 1.21-3.299.152-.178.154-.436-.011-.602l-.62-.62c-.176-.175-.471-.176-.636.012-1.095 1.248-1.693 2.832-1.693 4.51v.598h-7.844L15.572.99c-.264-.546-.97-.99-1.577-.99H7c-.966 0-1.75.784-1.75 1.75v8.518c-.588-.08-1.204.077-1.657.528l-1.547 1.546c-.7.702-.762 1.805-.181 2.576-.061.136-.12.275-.173.414C.737 15.468 0 16.29 0 17.282v2.187c0 .992.737 1.814 1.692 1.95.053.139.111.277.173.414-.257.34-.395.75-.395 1.182-.002.526.203 1.022.576 1.393l1.547 1.547c.704.702 1.806.762 2.575.182.137.06.275.118.413.172.135.955.96 1.692 1.95 1.692h2.188zm2.59-17.5h-.501l-.14-.058c-.135-.954-.959-1.692-1.95-1.692H8.532c-.631 0-1.17.318-1.532.78V1.75h6.995l4.219 8.75h-2.986c-.599-.34-1.317-.337-1.918 0zm-2.59 15.75H8.531c-.122 0-.22-.098-.22-.218v-1.007c-1.277-.381-1.273-.38-2.462-1.018l-.71.71c-.036.037-.105.066-.156.066-.05 0-.12-.03-.154-.065L3.283 23.17l.002-.31.709-.712c-.652-1.212-.63-1.17-1.018-2.46H1.969c-.122 0-.219-.1-.219-.22v-2.187c0-.12.097-.219.219-.219h1.007c.39-1.3.367-1.249 1.018-2.462l-.711-.711c-.035-.036-.064-.105-.064-.155s.029-.12.064-.155l1.547-1.547c.087-.085.225-.083.31 0l.71.711c1.189-.639 1.185-.637 2.463-1.018V10.72c0-.12.097-.219.219-.219h2.187c.121 0 .219.099.219.22v1.006c1.278.381 1.274.38 2.463 1.018l.71-.71c.086-.084.224-.086.31 0l1.547 1.546c.035.035.064.105.064.155s-.03.12-.064.155l-.711.71c.651 1.215.627 1.165 1.018 2.463h1.007c.121 0 .219.098.219.219v2.187c0 .12-.098.22-.22.22h-1.006c-.389 1.291-.367 1.249-1.018 2.459l.709.713.002.31-1.547 1.546c-.085.088-.224.085-.31 0l-.71-.71c-1.19.638-1.185.637-2.463 1.017v1.008c0 .12-.098.219-.219.219zm13.393-7h-4.862v-1.969c0-.992-.737-1.814-1.693-1.949-.053-.14-.11-.278-.172-.414.58-.771.52-1.875-.181-2.576l-.093-.092h16.139v2.775l-3 3c-.684-.326-1.441-.525-2.25-.525-1.549 0-2.927.683-3.888 1.75zm-14.488 3.5c2.416 0 4.375-1.958 4.375-4.374C14 15.959 12.041 14 9.625 14S5.25 15.96 5.25 18.376c0 2.416 1.96 4.375 4.375 4.375zm0-2.187c-1.206 0-2.187-.981-2.187-2.187 0-1.207.98-2.188 2.187-2.188 1.207 0 2.188.981 2.188 2.188 0 1.206-.981 2.187-2.188 2.187zm18.376 5.688c-1.93 0-3.5-1.57-3.5-3.5s1.57-3.5 3.5-3.5 3.5 1.57 3.5 3.5-1.57 3.5-3.5 3.5z" transform="translate(-370 -1190) translate(330 230) translate(0 44) translate(40 40) translate(0 876.125) translate(0 .028)"/>
                            </g>
                        </g>
                    </g>
                </g>
            </g>
        </g>
    </g>
</svg>
