<?xml version="1.0" encoding="UTF-8"?>
<svg width="31px" height="31px" viewBox="0 0 31 31" version="1.1" xmlns="http://www.w3.org/2000/svg" xmlns:xlink="http://www.w3.org/1999/xlink">
    <title>4F4CF2C0-ACCE-4F70-A2BB-6A8F0F7C0922</title>
    <g id="Byzantine" stroke="none" stroke-width="1" fill="none" fill-rule="evenodd">
        <g id="Roadmap" transform="translate(-370.000000, -374.000000)">
            <g id="Group-2" transform="translate(330.000000, 230.000000)">
                <g id="Group-11" transform="translate(0.000000, 44.000000)">
                    <g id="Group-8" transform="translate(40.000000, 40.000000)">
                        <g id="Group-12" transform="translate(0.000000, 59.750000)">
                            <g id="rocket-launch" transform="translate(0.500000, 0.750000)">
                                <path d="M6.00196582,20.6268311 C6.88647891,20.6268311 7.82512266,20.995674 8.39320664,21.5666197 C9.14382188,22.3209 9.64736133,23.8360975 9.10239434,25.158348 C8.35029141,26.983452 5.72524805,28.0546189 1.87385625,28.1203078 L1.87458111,28.0195207 C1.88344079,27.1106279 2.04565999,20.6268311 6.00196582,20.6268311 Z M20.6180004,19.4477473 L20.6253264,19.4478645 L20.6253264,24.4451525 C20.6253264,24.6871945 20.3269793,25.1702502 20.1103459,25.2786258 L15.0067383,27.832718 L15.00615,27.3729021 C15.0051363,26.9105131 15.0029003,26.3181658 15.0001302,25.7010227 L14.9979633,25.2351592 C14.9908526,23.7556091 14.9817006,22.2844897 14.9797301,22.2306059 L15.0012451,22.2333527 C16.8760143,21.3060381 18.9740578,20.265198 20.6180004,19.4477473 Z M27.8830512,2.12013223 C28.1329898,3.54847207 28.128641,4.72080234 28.1241779,5.95859531 C28.1241765,12.6780278 23.4684938,15.8599901 18.5331269,18.3909234 L17.9734464,18.6748181 C16.8526365,19.2376655 15.7259542,19.7727225 14.6441912,20.3134916 C13.915498,17.9415752 12.0577337,16.0855674 9.6851291,15.3591158 C9.77612836,15.1772367 9.86690389,14.9942007 9.95761455,14.8102387 L10.2297108,14.2558065 C13.088014,8.40995698 16.039584,1.8747709 24.0498557,1.8747709 C25.2899338,1.8747709 26.4695924,1.8747709 27.8830512,2.12013223 Z M10.5524736,9.37408477 C9.73593809,11.018257 8.69429766,13.1238557 7.76606836,14.9986266 L7.76995898,15.0251771 C7.71987715,15.0234405 6.39890394,15.0152568 5.00378206,15.0084285 L4.5376368,15.0062133 C3.91682579,15.0033552 3.30763409,15.000936 2.81512553,14.9996408 L2.46926381,14.9988908 C2.36236368,14.9987182 2.26439788,14.9986266 2.17700801,14.9986266 L4.73178457,9.89032734 C4.84027441,9.67323281 5.32447383,9.37408477 5.56731738,9.37408477 L10.5524736,9.37408477 Z" id="Combined-Shape" fill="#49A0FF"></path>
                                <path d="M21.5659154,5.1579668 C20.2388683,5.15789641 19.0424527,5.95723923 18.5345703,7.18325295 C18.026688,8.40926667 18.3073609,9.82050085 19.2457082,10.7588816 C20.1840556,11.6972623 21.5952798,11.9779854 22.8213116,11.4701466 C24.0473434,10.9623078 24.8467055,9.76592059 24.8467055,8.43887344 C24.8459683,6.62722971 23.3775591,5.15876838 21.5659154,5.1579668 Z M21.5659154,9.84500859 C20.9971776,9.8450541 20.484416,9.50248969 20.2667379,8.97705747 C20.0490598,8.45162525 20.1693348,7.84680401 20.5714771,7.44462952 C20.9736194,7.04245502 21.578431,6.92213165 22.1038807,7.1397677 C22.6293303,7.35740375 22.9719357,7.87013791 22.9719357,8.43887578 C22.9711455,9.21509003 22.3421296,9.84415628 21.5659154,9.84500859 Z M29.5995469,1.13056172 C29.5306535,0.81046875 29.1903064,0.470466797 28.8702158,0.402031055 C26.990182,0 25.5168709,0 24.0498539,0 C18.003716,0 14.3778873,3.23421504 11.6711332,7.49931328 L5.56731738,7.49931328 C4.61264941,7.49931328 3.48209121,8.19786094 3.05499785,9.05181914 L0.160102734,14.8402406 C0.0705873831,15.0376887 0.0205160254,15.2507255 0.012703125,15.4673766 C0.012703125,16.2438253 0.642274164,16.8732228 1.41872285,16.8735094 L7.50789023,16.8735094 C10.6141086,16.8735806 13.1321422,19.3917186 13.1320846,22.4979369 L13.1320846,28.591118 C13.1322279,29.3676004 13.7616225,29.9972508 14.5381049,29.9972508 C14.7546892,29.9892159 14.9676461,29.9391542 15.165126,29.8498512 L20.9493082,26.9552971 C21.8022357,26.5284322 22.5000961,25.3989006 22.5000961,24.4451502 L22.5000961,18.3262254 C26.7520312,15.6129457 29.9989453,11.9748686 29.9989453,5.95859531 C30.0043242,4.48505391 30.0043242,3.0115125 29.5995469,1.13056172 Z M2.17700801,14.9986266 L4.73178457,9.89032734 C4.84027441,9.67323281 5.32447383,9.37408477 5.56731738,9.37408477 L10.5524736,9.37408477 C9.73593809,11.018257 8.69429766,13.1238557 7.76606836,14.9986266 L7.76995898,15.0251771 C7.68092461,15.0220898 3.5752459,14.9986266 2.17700801,14.9986266 Z M20.6253264,24.4451525 C20.6253264,24.6871945 20.3269793,25.1702502 20.1103459,25.2786258 L15.0067383,27.832718 C15.0067383,26.4321902 14.9830488,22.3213576 14.9797301,22.2306059 L15.0012451,22.2333527 C16.8760143,21.3060381 18.9740578,20.265198 20.6180004,19.4477473 L20.6253264,19.4478645 L20.6253264,24.4451525 Z M14.6441936,20.3134916 C13.915498,17.9415752 12.0577337,16.0855674 9.6851291,15.3591158 C12.7336043,9.2661668 15.5309953,1.8747709 24.0498557,1.8747709 C25.2899338,1.8747709 26.4695924,1.8747709 27.8830512,2.12013223 C28.1329898,3.54847207 28.128641,4.72080234 28.1241779,5.95859531 C28.1241762,14.4529723 20.6840344,17.2941973 14.6441912,20.3134916 L14.6441936,20.3134916 Z M6.00196699,18.7482832 C3.18477363,18.7482832 0.119018555,21.0538102 0.00984375,28.125 L0,28.125 L0,30 L1.875,30 L1.875,29.9863816 C11.9306836,29.7908021 12.7083105,23.246727 9.71488184,20.2383041 C8.83940918,19.3584826 7.45444629,18.7482832 6.00196348,18.7482832 L6.00196699,18.7482832 Z M9.10239668,25.158348 C8.35029141,26.983452 5.72524805,28.0546189 1.87385625,28.1203078 C1.8776332,27.9120252 1.80828164,20.6268311 6.00196582,20.6268311 C6.88647891,20.6268311 7.82512266,20.995674 8.39320664,21.5666197 C9.14382188,22.3209 9.64736133,23.8360975 9.10239434,25.158348 L9.10239668,25.158348 Z" id="Shape" fill="#FFFFFF" fill-rule="nonzero"></path>
                            </g>
                        </g>
                    </g>
                </g>
            </g>
        </g>
    </g>
</svg>