<svg xmlns="http://www.w3.org/2000/svg" width="30" height="28" viewBox="0 0 30 28">
    <g fill="none" fill-rule="evenodd">
        <g>
            <g>
                <g>
                    <g>
                        <g>
                            <g>
                                <path fill="#40BA09" d="M15 10c4.142 0 7.5 3.358 7.5 7.5 0 4.142-3.358 7.5-7.5 7.5-4.142 0-7.5-3.358-7.5-7.5 0-4.142 3.358-7.5 7.5-7.5zM9.056 1.667l4.111 6.851c-1.664.34-3.159 1.138-4.363 2.247L2.435 1.667h6.621zm18.509 0l-6.369 9.098c-1.204-1.11-2.7-1.908-4.363-2.247l4.11-6.851h6.622z" transform="translate(-370 -741) translate(330 230) translate(0 44) translate(40 40) translate(0 427.125) translate(0 .42)"/>
                                <path fill="#FFF" fill-rule="nonzero" d="M15 26.667c5.055 0 9.167-4.112 9.167-9.167 0-2.05-.685-3.937-1.825-5.466l7.506-10.723C30.234.76 29.84 0 29.165 0h-8.221c-.586 0-1.128.307-1.43.81L15 8.332 10.485.81C10.217.363 9.577 0 9.056 0H.835C.16 0-.235.759.152 1.311l7.506 10.723c-1.14 1.529-1.825 3.417-1.825 5.466 0 5.055 4.112 9.167 9.167 9.167zM8.804 10.765L2.435 1.667h6.621l4.111 6.851c-1.664.34-3.159 1.138-4.363 2.247zm12.392 0c-1.204-1.11-2.7-1.908-4.363-2.247l4.11-6.851h6.622l-6.369 9.098zM15 25c-4.142 0-7.5-3.358-7.5-7.5 0-4.142 3.358-7.5 7.5-7.5 4.142 0 7.5 3.358 7.5 7.5 0 4.142-3.358 7.5-7.5 7.5zm-2.056-2.463L15 21.457l2.054 1.079c1.008.528 2.285-.306 2.079-1.508l-.394-2.287 1.662-1.62c.394-.382.532-.945.363-1.467-.17-.522-.613-.895-1.156-.974l-2.297-.336-1.029-2.086c-.491-.98-2.078-.982-2.566.005l-1.027 2.081-2.295.336c-.544.078-.987.451-1.158.974-.169.522-.03 1.085.363 1.467l1.662 1.62-.393 2.287c-.204 1.184 1.054 2.057 2.076 1.509zM15 13.428l1.205 2.44 2.692.392-1.948 1.9.46 2.68L15 19.572l-2.414 1.298.466-2.712-1.948-1.899 2.692-.392 1.203-2.44z" transform="translate(-370 -741) translate(330 230) translate(0 44) translate(40 40) translate(0 427.125) translate(0 .42)"/>
                            </g>
                        </g>
                    </g>
                </g>
            </g>
        </g>
    </g>
</svg>
