<svg xmlns="http://www.w3.org/2000/svg" width="29" height="31" viewBox="0 0 29 31">
    <g fill="none" fill-rule="evenodd">
        <g>
            <g>
                <g>
                    <g>
                        <g>
                            <g>
                                <path fill="#CAA000" d="M13.705 28.053C7.969 25.78 1.875 17.811 1.875 7.498c0-.38.229-.72.574-.867L13.7 1.944c.229-.094.492-.094.72 0L25.67 6.63c.352.147.58.487.575.867.006 10.313-6.088 18.282-11.818 20.555-.235.094-.493.094-.721 0z" transform="translate(-371 -1019) translate(330 230) translate(0 44) translate(40 40) translate(1 705.125) translate(0 .461)"/>
                                <path fill="#FFF" fill-rule="nonzero" d="M15.14 29.782c5.022-2.092 12.985-9.317 12.985-22.284 0-1.136-.686-2.162-1.729-2.595L15.146.215C14.86.096 14.376 0 14.066 0c-.31 0-.795.096-1.082.215L1.734 4.903C.686 5.336 0 6.362 0 7.498c0 11.631 6.709 19.67 12.978 22.284.692.287 1.471.287 2.163 0zm-1.435-1.729C7.969 25.78 1.875 17.811 1.875 7.498c0-.38.229-.72.574-.867L13.7 1.944c.229-.094.492-.094.72 0L25.67 6.63c.352.147.58.487.575.867.006 10.313-6.088 18.282-11.818 20.555-.235.094-.493.094-.721 0zm-1.383-7.055L22.898 10.51c.276-.275.276-.72.006-.996l-.498-.504c-.275-.275-.72-.275-.996-.006l-9.574 9.498-4.043-4.072c-.275-.275-.72-.275-.996-.006l-.498.498c-.276.276-.276.72-.006.996l5.033 5.075c.275.275.72.275.996.005z" transform="translate(-371 -1019) translate(330 230) translate(0 44) translate(40 40) translate(1 705.125) translate(0 .461)"/>
                            </g>
                        </g>
                    </g>
                </g>
            </g>
        </g>
    </g>
</svg>
