<svg xmlns="http://www.w3.org/2000/svg" width="30" height="28" viewBox="0 0 30 28">
    <g fill="none" fill-rule="evenodd">
        <g>
            <g>
                <g>
                    <g>
                        <g>
                            <path fill="#FFF" fill-rule="nonzero" d="M10.313 26.25c5.695 0 10.312-2.098 10.312-4.688v-.96C25.881 20.385 30 18.38 30 15.937V4.688C30 2.52 26.361 0 19.687 0c-2.847 0-5.425.527-7.294 1.371-.053.024-3.018 1.23-3.018 3.316v.979C4.459 5.871 0 7.699 0 10.312v11.25c0 2.59 4.617 4.688 10.313 4.688zM19.687 7.5c-.427 0-.82-.03-1.224-.053-2.162-1.271-4.98-1.652-6.774-1.758-.369-.31-.591-.644-.591-1.002 0-1.552 3.85-2.812 8.595-2.812 4.746 0 8.596 1.26 8.596 2.813 0 1.552-3.855 2.812-8.602 2.812zm.938 5.578v-2.765c0-.329-.1-.645-.24-.956 3.199-.1 6-.85 7.74-1.98v2.936c0 .767-2.643 2.542-7.5 2.765zm-10.313.047c-4.746 0-8.595-1.26-8.595-2.813 0-1.552 3.85-2.812 8.595-2.812 4.747 0 8.596 1.26 8.596 2.813 0 1.552-3.85 2.812-8.596 2.812zm0 5.625c-5.478 0-8.437-1.998-8.437-2.813v-2.935C3.738 14.209 6.82 15 10.313 15c3.492 0 6.574-.791 8.437-1.998v2.935c0 .815-2.959 2.813-8.438 2.813zm10.313-.041v-3.756c3.094-.129 5.807-.855 7.5-1.951v2.935c0 .768-2.637 2.555-7.5 2.772zm-10.313 5.666c-5.478 0-8.437-1.998-8.437-2.813v-2.935c1.863 1.207 4.945 1.998 8.438 1.998 3.492 0 6.574-.791 8.437-1.998v2.936c0 .814-2.959 2.812-8.438 2.812z" transform="translate(-371 -968) translate(330 230) translate(0 44) translate(40 40) translate(1 654.125)"/>
                            <path fill="#CAA000" d="M18.75 18.627v2.936c0 .814-2.959 2.812-8.438 2.812-5.478 0-8.437-1.998-8.437-2.813v-2.935c1.863 1.207 4.945 1.998 8.438 1.998 3.492 0 6.574-.791 8.437-1.998zm0-5.625v2.935c0 .815-2.959 2.813-8.438 2.813-5.478 0-8.437-1.998-8.437-2.813v-2.935C3.738 14.209 6.82 15 10.313 15c3.492 0 6.574-.791 8.437-1.998zm9.375 0v2.935c0 .768-2.637 2.555-7.5 2.772v-3.756c3.094-.129 5.807-.855 7.5-1.951zM10.312 7.5c4.747 0 8.596 1.26 8.596 2.813 0 1.552-3.85 2.812-8.596 2.812s-8.595-1.26-8.595-2.813c0-1.552 3.85-2.812 8.595-2.812zm17.813-.123v2.936c0 .767-2.643 2.542-7.5 2.765v-2.765c0-.329-.1-.645-.24-.956 3.199-.1 6-.85 7.74-1.98zm-8.432-5.502c4.746 0 8.596 1.26 8.596 2.813 0 1.552-3.855 2.812-8.602 2.812-.427 0-.82-.03-1.224-.053-2.162-1.271-4.98-1.652-6.774-1.758-.369-.31-.591-.644-.591-1.002 0-1.552 3.85-2.812 8.595-2.812z" transform="translate(-371 -968) translate(330 230) translate(0 44) translate(40 40) translate(1 654.125)"/>
                        </g>
                    </g>
                </g>
            </g>
        </g>
    </g>
</svg>
