<svg xmlns="http://www.w3.org/2000/svg" width="35" height="33" viewBox="0 0 35 33">
    <g fill="none" fill-rule="evenodd">
        <g>
            <g>
                <g>
                    <g>
                        <g>
                            <g>
                                <path fill="#E86E1E" d="M24.917 2.667v5.27c0 7.667-3.354 13.896-7.667 13.896-4.312 0-7.667-6.229-7.667-13.896v-5.27h15.334zM7.667 6.5v1.437c0 3.103.419 5.685 1.108 7.799-4.11-1.06-6.858-4.325-6.858-6.744V6.5h5.75zm24.916 0v2.492c0 2.42-2.755 5.684-6.858 6.744.69-2.114 1.108-4.696 1.108-7.799V6.5h5.75z" transform="translate(-370 -1239) translate(330 230) translate(0 44) translate(40 40) translate(0 925.125) translate(0 .125)"/>
                                <path fill="#FFF" fill-rule="nonzero" d="M24.557 31.417c.198 0 .36-.156.36-.354 0-.862-.695-1.563-1.558-1.563h-5.15v-5.834c2.257-.395 4.905-2.168 6.666-5.804 5.552-.82 9.625-5.157 9.625-8.87v-3.69c0-.395-.323-.719-.719-.719h-6.948V1.47c0-.396-.323-.719-.718-.719H8.385c-.395 0-.718.323-.718.719v3.114H.719c-.396 0-.719.324-.719.719v3.69c0 3.72 4.079 8.05 9.625 8.87 1.761 3.636 4.415 5.409 6.667 5.804V29.5H11.14c-.863 0-1.558.7-1.558 1.563 0 .198.162.354.36.354h14.614zm-7.307-9.584c-4.312 0-7.667-6.229-7.667-13.896v-5.27h15.334v5.27c0 7.667-3.354 13.896-7.667 13.896zm3.642-6.522l-.515-2.995 2.174-2.12c.401-.384.18-1.049-.36-1.126l-3.006-.438-1.348-2.725c-.24-.485-.94-.491-1.18 0l-1.348 2.725-3.006.438c-.54.077-.755.742-.366 1.126l2.174 2.12-.515 2.995c-.09.533.474.946.959.694l2.689-1.413 2.69 1.413c.478.252 1.047-.155.958-.694zm-12.117.425c-4.11-1.06-6.858-4.325-6.858-6.744V6.5h5.75v1.437c0 3.103.419 5.685 1.108 7.799zm16.95 0c.69-2.114 1.108-4.696 1.108-7.799V6.5h5.75v2.492c0 2.42-2.755 5.684-6.858 6.744zm-6.834-2.174l-1.641-.863-1.647.863.311-1.833-1.33-1.294 1.84-.27.82-1.664.82 1.665 1.84.27-1.324 1.293.311 1.833z" transform="translate(-370 -1239) translate(330 230) translate(0 44) translate(40 40) translate(0 925.125) translate(0 .125)"/>
                            </g>
                        </g>
                    </g>
                </g>
            </g>
        </g>
    </g>
</svg>
