<svg xmlns="http://www.w3.org/2000/svg" width="34" height="27" viewBox="0 0 34 27">
    <g fill="none" fill-rule="evenodd">
        <g>
            <g>
                <g>
                    <g>
                        <g>
                            <g>
                                <path fill="#49A0FF" d="M23.947 8.502c1.45 0 2.429 1.992 4.172 5.467.33.656 1.956.988 4.881.998v6.989h-3.067l-.005.144c-.076 1.032-.938 1.847-1.99 1.847-1.1 0-1.993-.891-1.996-1.99l-6.985-.001-.005.144c-.076 1.032-.938 1.847-1.99 1.847-1.1 0-1.993-.891-1.995-1.99l-6.985-.001-.005.144c-.076 1.032-.938 1.847-1.99 1.847-1.1 0-1.993-.891-1.996-1.99L1 21.955v-6.99h3.39c-.503-2.66-.349-3.99.463-3.99.522 0 3.697-1.102 5.125 0 .527.406.724 1.737.59 3.99H21.41c-.387-4.31.459-6.464 2.537-6.464zm-.57-5.688l4.742 4.74c-1.326.727-3.024.529-4.147-.595-1.123-1.122-1.322-2.82-.596-4.145z" transform="translate(-370 -473) translate(330 230) translate(0 44) translate(40 40) translate(0 159.125) translate(0 .46)"/>
                                <path fill="#FFF" fill-rule="nonzero" d="M3.991 21.951c0-1.102.894-1.996 1.996-1.996 1.102 0 1.995.894 1.995 1.996 0 1.102-.893 1.996-1.995 1.996S3.99 23.053 3.99 21.95zm5.987 0c0-2.204-1.787-3.991-3.991-3.991-2.205 0-3.991 1.787-3.991 3.991s1.786 3.991 3.99 3.991c2.205 0 3.992-1.787 3.992-3.991zM14.967 21.951c0-1.102.893-1.996 1.995-1.996s1.996.894 1.996 1.996c0 1.102-.894 1.996-1.996 1.996-1.102 0-1.995-.894-1.995-1.996zm5.986 0c0-2.204-1.787-3.991-3.99-3.991-2.205 0-3.992 1.787-3.992 3.991s1.787 3.991 3.991 3.991 3.991-1.787 3.991-3.991zM22.56 8.37c2.144 2.144 5.618 2.144 7.761 0 .39-.39.39-1.021 0-1.41L23.971.61c-.389-.39-1.02-.39-1.41 0-2.144 2.143-2.144 5.617 0 7.76zm5.56-.817c-1.327.728-3.025.53-4.148-.594-1.123-1.122-1.322-2.82-.596-4.145l4.743 4.74z" transform="translate(-370 -473) translate(330 230) translate(0 44) translate(40 40) translate(0 159.125) translate(0 .46)"/>
                                <path fill="#FFF" fill-rule="nonzero" d="M26.97 14.21c.133.535.675.86 1.21.727.534-.134.86-.676.726-1.21l-1.118-4.47c-.133-.534-.675-.859-1.21-.725-.534.133-.86.675-.726 1.21l1.118 4.469zM23.917 8.224c.133-.534-.192-1.076-.726-1.21-.535-.133-1.077.192-1.21.726l-1.497 5.987c-.134.534.192 1.076.726 1.21.535.133 1.076-.192 1.21-.726l1.497-5.987zM30.114 2.198c.387-.392.383-1.024-.009-1.411s-1.024-.384-1.41.008L26.23 3.29c-.387.392-.383 1.024.009 1.41.392.388 1.023.384 1.41-.008l2.465-2.494z" transform="translate(-370 -473) translate(330 230) translate(0 44) translate(40 40) translate(0 159.125) translate(0 .46)"/>
                                <path fill="#FFF" fill-rule="nonzero" d="M1.996 20.953v-5.986h29.937v5.986h-.503c-.551 0-.998.447-.998.998 0 .551.447.998.998.998h1.5c.552 0 .998-.447.998-.998v-7.982c0-.551-.446-.998-.997-.998H.998c-.551 0-.998.447-.998.998v7.982c0 .551.447.998.998.998h1.496c.551 0 .998-.447.998-.998 0-.551-.447-.998-.998-.998h-.498z" transform="translate(-370 -473) translate(330 230) translate(0 44) translate(40 40) translate(0 159.125) translate(0 .46)"/>
                                <path fill="#FFF" fill-rule="nonzero" d="M13.47 22.949c.551 0 .998-.447.998-.998 0-.551-.447-.998-.998-.998H9.479c-.551 0-.998.447-.998.998 0 .551.447.998.998.998h3.99zM25.942 21.951c0-1.102.894-1.996 1.996-1.996 1.102 0 1.995.894 1.995 1.996 0 1.102-.893 1.996-1.995 1.996s-1.996-.894-1.996-1.996zm5.987 0c0-2.204-1.787-3.991-3.991-3.991-2.205 0-3.991 1.787-3.991 3.991s1.786 3.991 3.99 3.991c2.205 0 3.992-1.787 3.992-3.991z" transform="translate(-370 -473) translate(330 230) translate(0 44) translate(40 40) translate(0 159.125) translate(0 .46)"/>
                                <path fill="#FFF" fill-rule="nonzero" d="M24.445 22.949c.552 0 .998-.447.998-.998 0-.551-.446-.998-.998-.998h-3.99c-.552 0-.998.447-.998.998 0 .551.446.998.997.998h3.991zM5.488 11.474h3.99v1.497c0 .551.448.998.999.998.55 0 .997-.447.997-.998v-2.494c0-.551-.446-.998-.997-.998H4.49c-.551 0-.998.447-.998.998v2.494c0 .551.447.998.998.998.551 0 .998-.447.998-.998v-1.497z" transform="translate(-370 -473) translate(330 230) translate(0 44) translate(40 40) translate(0 159.125) translate(0 .46)"/>
                            </g>
                        </g>
                    </g>
                </g>
            </g>
        </g>
    </g>
</svg>
