<svg xmlns="http://www.w3.org/2000/svg" width="31" height="31" viewBox="0 0 31 31">
    <g fill="none" fill-rule="evenodd">
        <g>
            <g>
                <g>
                    <g>
                        <g>
                            <g>
                                <path fill="#CAA000" d="M25.658 18.098l.833.832-2.452 4.01 3.698 3.698-1.099 1.098-3.698-3.698-4.01 2.452-.832-.832 7.56-7.56zm-21.316-.002l7.56 7.562-.832.832-4.01-2.452-3.698 3.698-1.099-1.1 3.699-3.697-2.453-4.01.833-.833zm4.924-.547l3.499 3.475-1.49 2.945-4.245-4.193 2.236-2.227zM2.083 2.082l3.578.606 16.378 16.378-2.973 2.973L2.686 5.661l-.603-3.579zm27.064-.962l-1.142 4.964-6.73 6.885-4.245-4.193 7.002-6.973 5.115-.683z" transform="translate(-370 -861) translate(330 230) translate(0 44) translate(40 40) translate(0 546.75) translate(.5 .75)"/>
                                <path fill="#FFF" fill-rule="nonzero" d="M27.3 29.725l2.425-2.424c.366-.366.366-.96 0-1.326l-3.274-3.274 2.026-3.37c.087-.131.157-.364.157-.52 0-.215-.123-.512-.275-.664l-2.039-2.039c-.363-.364-.958-.368-1.325 0l-1.631 1.632L6.563.938 1.07.01C.414-.085-.073.49.01 1.071l.927 5.492 16.801 16.801-1.63 1.631c-.367.366-.367.96 0 1.326l2.038 2.039c.317.316.812.364 1.183.117l3.37-2.026 3.275 3.274c.366.366.96.366 1.326 0zm-5.35-16.051l7.112-7.112.928-5.492c.095-.656-.48-1.143-1.061-1.06l-5.492.927-7.111 7.112 1.325 1.326 6.688-6.689 3.579-.604-.606 3.578-6.687 6.688 1.326 1.326zm-2.884 8.365L2.686 5.661l-.603-3.579 3.578.606 16.378 16.378-2.973 2.973zM4.025 29.725l3.274-3.274 3.37 2.026c.131.087.364.157.52.157.215 0 .512-.123.664-.274l2.039-2.04c.05-.05.078-.114.115-.174-.028-.16-.047-.322-.047-.488 0-.165.02-.328.047-.489-.037-.06-.064-.123-.116-.174l-1.631-1.631 1.413-1.413-1.325-1.326-1.413 1.413-2.974-2.973 1.414-1.414-1.326-1.326-1.413 1.414-1.631-1.631c-.366-.366-.96-.366-1.326 0L1.64 18.147c-.316.316-.364.812-.117 1.183L3.55 22.7.275 25.975c-.367.366-.367.96 0 1.326l2.424 2.424c.366.366.96.366 1.326 0zm22.613-1.989l-3.698-3.698-4.01 2.452-.832-.832 7.56-7.56.833.832-2.452 4.01 3.698 3.698-1.099 1.098zm-23.276 0l-1.099-1.1 3.699-3.697-2.453-4.01.833-.833 7.56 7.562-.832.832-4.01-2.452-3.698 3.698z" transform="translate(-370 -861) translate(330 230) translate(0 44) translate(40 40) translate(0 546.75) translate(.5 .75)"/>
                            </g>
                        </g>
                    </g>
                </g>
            </g>
        </g>
    </g>
</svg>
