<svg xmlns="http://www.w3.org/2000/svg" width="30" height="31" viewBox="0 0 30 31">
    <g fill="none" fill-rule="evenodd">
        <g>
            <g>
                <g>
                    <g>
                        <g>
                            <g>
                                <path fill="#FFF" fill-rule="nonzero" d="M20.75 30c1.037 0 1.875-.838 1.875-1.875v-7.887l4.521-7.113h1.905c.545 0 1.007-.533.943-1.16C29.25 4.74 21.609 0 15 0 8.39 0 .75 4.74.006 11.965c-.064.627.398 1.16.938 1.16h1.904l4.527 7.113v7.887c0 1.037.838 1.875 1.875 1.875h11.5zm.812-18.75H8.438c0-5.625 3.527-9.375 6.562-9.375s6.562 3.75 6.562 9.375zm-15 0H2.01c.785-3.815 3.908-6.75 7.564-8.256C7.811 4.91 6.563 7.74 6.563 11.203v.047zm21.428 0h-4.553v-.047c0-3.463-1.248-6.287-3.011-8.209 3.65 1.506 6.779 4.441 7.564 8.256zm-13.927 7.5H9.164l-3.773-5.625h8.672v5.625zm7.022 0h-5.148v-5.625h8.666l-3.518 5.625zm-2.804 9.375H11.72c-.258 0-.469-.211-.469-.47v-6.561c0-.258.211-.47.469-.47h6.562c.258 0 .469.212.469.47v6.562c0 .258-.211.469-.469.469z" transform="translate(-370 -789) translate(330 230) translate(0 44) translate(40 40) translate(0 475.125) translate(0 .461)"/>
                                <path fill="#40BA09" d="M20.281 20.625c.258 0 .469.21.469.469v6.562c0 .258-.211.469-.469.469H9.72c-.258 0-.469-.211-.469-.47v-6.561c0-.258.211-.47.469-.47H20.28zM15 1.875c3.035 0 6.562 3.75 6.562 9.375H8.438c0-5.625 3.527-9.375 6.562-9.375zm-5.426 1.12C7.811 4.91 6.563 7.74 6.563 11.202v.047H2.01c.785-3.815 3.908-6.75 7.564-8.256zm10.852 0c3.65 1.505 6.779 4.44 7.564 8.255h-4.553v-.047c0-3.463-1.248-6.287-3.011-8.209z" transform="translate(-370 -789) translate(330 230) translate(0 44) translate(40 40) translate(0 475.125) translate(0 .461)"/>
                            </g>
                        </g>
                    </g>
                </g>
            </g>
        </g>
    </g>
</svg>
