<svg xmlns="http://www.w3.org/2000/svg" width="30" height="31" viewBox="0 0 30 31">
    <g fill="none" fill-rule="evenodd">
        <g>
            <g>
                <g>
                    <g>
                        <g>
                            <g>
                                <path fill="#CAA000" d="M26.786 27.857H3.214c-.59 0-1.071-.48-1.071-1.071V3.214c0-.59.48-1.071 1.071-1.071h23.572c.59 0 1.071.48 1.071 1.071v23.572c0 .59-.48 1.071-1.071 1.071z" transform="translate(-370 -912) translate(330 230) translate(0 44) translate(40 40) translate(0 598.125) translate(0 .137)"/>
                                <path fill="#FFF" fill-rule="nonzero" d="M26.786 30C28.56 30 30 28.56 30 26.786V3.214C30 1.44 28.56 0 26.786 0H3.214C1.44 0 0 1.44 0 3.214v23.572C0 28.56 1.44 30 3.214 30h23.572zm0-2.143H3.214c-.59 0-1.071-.48-1.071-1.071V3.214c0-.59.48-1.071 1.071-1.071h23.572c.59 0 1.071.48 1.071 1.071v23.572c0 .59-.48 1.071-1.071 1.071zm-11.25-4.286c.296 0 .535-.24.535-.535V6.964c0-.296-.24-.535-.535-.535h-1.072c-.296 0-.535.24-.535.535v16.072c0 .296.24.535.535.535h1.072zm-6.429 0c.296 0 .536-.24.536-.535v-9.643c0-.296-.24-.536-.536-.536H8.036c-.296 0-.536.24-.536.536v9.643c0 .296.24.535.536.535h1.071zm12.857 0c.296 0 .536-.24.536-.535v-5.357c0-.296-.24-.536-.536-.536h-1.071c-.296 0-.536.24-.536.536v5.357c0 .296.24.535.536.535h1.071z" transform="translate(-370 -912) translate(330 230) translate(0 44) translate(40 40) translate(0 598.125) translate(0 .137)"/>
                            </g>
                        </g>
                    </g>
                </g>
            </g>
        </g>
    </g>
</svg>
