<svg xmlns="http://www.w3.org/2000/svg" width="31" height="28" viewBox="0 0 31 28">
    <g fill="none" fill-rule="evenodd">
        <g>
            <g>
                <g>
                    <g>
                        <g>
                            <g>
                                <path fill="#FFF" fill-rule="nonzero" d="M.833 26.667c.105 0 .209-.021.313-.063L10 23.334l8.958 3.16c.677.225 1.407.23 2.084.011l7.911-2.755c.636-.255 1.047-.865 1.047-1.547V9.167c0-.48-.39-.834-.833-.834-.105 0-.209.021-.313.063L20 11.666l-.536-.187c1.213-1.818 2.203-3.708 2.203-5.073C21.667 2.865 18.682 0 15 0S8.333 2.87 8.333 6.406c0 .615.209 1.344.542 2.115L1.047 11.25C.417 11.5 0 12.115 0 12.797v13.036c0 .48.39.834.833.834zM15 14.573c-3.016-3.537-5-6.76-5-8.167 0-2.614 2.245-4.74 5-4.74s5 2.126 5 4.74c0 1.407-1.984 4.63-5 8.167zM1.661 24.635l-.067-11.817 7.573-2.63v11.677l-7.506 2.77zm19.172.178V13.135l7.506-2.77.067 11.817-7.573 2.63zm-1.666-.01l-8.334-2.944v-9.942c1.271 1.838 2.714 3.541 3.526 4.463.167.193.407.287.641.287.234 0 .469-.094.64-.287.667-.755 1.756-2.036 2.829-3.484l.698.245v11.661z" transform="translate(-370 -425) translate(330 230) translate(0 44) translate(40 40) translate(0 110.75) translate(.5 .417)"/>
                                <path fill="#49A0FF" d="M28.339 10.365l.067 11.817-7.573 2.63V13.136l7.506-2.77zm-17.506 1.552c1.271 1.838 2.714 3.541 3.526 4.463.167.193.407.287.641.287.234 0 .469-.094.64-.287.667-.755 1.756-2.036 2.829-3.484l.698.245v11.661l-8.334-2.943v-9.942zm-1.666-1.73v11.678l-7.506 2.77-.067-11.817 7.573-2.63zM15 1.667c2.755 0 5 2.125 5 4.74 0 1.405-1.984 4.63-5 8.166-3.016-3.537-5-6.76-5-8.167 0-2.614 2.245-4.74 5-4.74z" transform="translate(-370 -425) translate(330 230) translate(0 44) translate(40 40) translate(0 110.75) translate(.5 .417)"/>
                            </g>
                        </g>
                    </g>
                </g>
            </g>
        </g>
    </g>
</svg>
